<mxfile host="app.diagrams.net" modified="2022-12-18T17:37:23.725Z" agent="5.0 (Windows NT 10.0; Win64; x64) AppleWebKit/537.36 (KHTML, like Gecko) Chrome/108.0.0.0 Safari/537.36" etag="HmkkC1Gka-3MVZQAvLHI" version="20.7.4" type="github">
  <diagram id="An_6A8uYQxj1aYiGU6a9" name="Страница 1">
    <mxGraphModel dx="2140" dy="686" grid="1" gridSize="10" guides="1" tooltips="1" connect="1" arrows="1" fold="1" page="1" pageScale="1" pageWidth="827" pageHeight="1169" math="0" shadow="0">
      <root>
        <mxCell id="0" />
        <mxCell id="1" parent="0" />
        <mxCell id="K3_foTwXIABXSG76bnOj-19" style="edgeStyle=orthogonalEdgeStyle;rounded=0;orthogonalLoop=1;jettySize=auto;html=1;exitX=0.5;exitY=1;exitDx=0;exitDy=0;entryX=1;entryY=0.5;entryDx=0;entryDy=0;" parent="1" source="K3_foTwXIABXSG76bnOj-1" target="K3_foTwXIABXSG76bnOj-8" edge="1">
          <mxGeometry relative="1" as="geometry" />
        </mxCell>
        <mxCell id="K3_foTwXIABXSG76bnOj-20" style="edgeStyle=orthogonalEdgeStyle;rounded=0;orthogonalLoop=1;jettySize=auto;html=1;exitX=0.5;exitY=1;exitDx=0;exitDy=0;entryX=1;entryY=0.5;entryDx=0;entryDy=0;" parent="1" source="K3_foTwXIABXSG76bnOj-1" target="K3_foTwXIABXSG76bnOj-2" edge="1">
          <mxGeometry relative="1" as="geometry" />
        </mxCell>
        <mxCell id="K3_foTwXIABXSG76bnOj-21" style="edgeStyle=orthogonalEdgeStyle;rounded=0;orthogonalLoop=1;jettySize=auto;html=1;exitX=0.5;exitY=1;exitDx=0;exitDy=0;entryX=1;entryY=0.5;entryDx=0;entryDy=0;" parent="1" source="K3_foTwXIABXSG76bnOj-1" target="K3_foTwXIABXSG76bnOj-3" edge="1">
          <mxGeometry relative="1" as="geometry" />
        </mxCell>
        <mxCell id="K3_foTwXIABXSG76bnOj-22" style="edgeStyle=orthogonalEdgeStyle;rounded=0;orthogonalLoop=1;jettySize=auto;html=1;exitX=0.5;exitY=1;exitDx=0;exitDy=0;entryX=1;entryY=0.5;entryDx=0;entryDy=0;" parent="1" source="K3_foTwXIABXSG76bnOj-1" target="K3_foTwXIABXSG76bnOj-4" edge="1">
          <mxGeometry relative="1" as="geometry" />
        </mxCell>
        <mxCell id="K3_foTwXIABXSG76bnOj-23" style="edgeStyle=orthogonalEdgeStyle;rounded=0;orthogonalLoop=1;jettySize=auto;html=1;exitX=0.5;exitY=1;exitDx=0;exitDy=0;entryX=1;entryY=0.5;entryDx=0;entryDy=0;" parent="1" source="K3_foTwXIABXSG76bnOj-1" target="K3_foTwXIABXSG76bnOj-5" edge="1">
          <mxGeometry relative="1" as="geometry" />
        </mxCell>
        <mxCell id="K3_foTwXIABXSG76bnOj-24" style="edgeStyle=orthogonalEdgeStyle;rounded=0;orthogonalLoop=1;jettySize=auto;html=1;exitX=0.5;exitY=1;exitDx=0;exitDy=0;entryX=1;entryY=0.5;entryDx=0;entryDy=0;" parent="1" source="K3_foTwXIABXSG76bnOj-1" target="K3_foTwXIABXSG76bnOj-6" edge="1">
          <mxGeometry relative="1" as="geometry" />
        </mxCell>
        <mxCell id="K3_foTwXIABXSG76bnOj-25" style="edgeStyle=orthogonalEdgeStyle;rounded=0;orthogonalLoop=1;jettySize=auto;html=1;exitX=0.5;exitY=1;exitDx=0;exitDy=0;entryX=1;entryY=0.5;entryDx=0;entryDy=0;" parent="1" source="K3_foTwXIABXSG76bnOj-1" target="K3_foTwXIABXSG76bnOj-7" edge="1">
          <mxGeometry relative="1" as="geometry" />
        </mxCell>
        <mxCell id="K3_foTwXIABXSG76bnOj-26" style="edgeStyle=orthogonalEdgeStyle;rounded=0;orthogonalLoop=1;jettySize=auto;html=1;exitX=0.5;exitY=1;exitDx=0;exitDy=0;entryX=1;entryY=0.5;entryDx=0;entryDy=0;" parent="1" source="K3_foTwXIABXSG76bnOj-1" target="K3_foTwXIABXSG76bnOj-9" edge="1">
          <mxGeometry relative="1" as="geometry" />
        </mxCell>
        <mxCell id="K3_foTwXIABXSG76bnOj-27" style="edgeStyle=orthogonalEdgeStyle;rounded=0;orthogonalLoop=1;jettySize=auto;html=1;exitX=0.5;exitY=1;exitDx=0;exitDy=0;entryX=1;entryY=0.5;entryDx=0;entryDy=0;" parent="1" source="K3_foTwXIABXSG76bnOj-1" target="K3_foTwXIABXSG76bnOj-10" edge="1">
          <mxGeometry relative="1" as="geometry" />
        </mxCell>
        <mxCell id="K3_foTwXIABXSG76bnOj-29" style="edgeStyle=orthogonalEdgeStyle;rounded=0;orthogonalLoop=1;jettySize=auto;html=1;exitX=0.5;exitY=1;exitDx=0;exitDy=0;entryX=1;entryY=0.5;entryDx=0;entryDy=0;" parent="1" source="K3_foTwXIABXSG76bnOj-1" target="K3_foTwXIABXSG76bnOj-12" edge="1">
          <mxGeometry relative="1" as="geometry" />
        </mxCell>
        <mxCell id="K3_foTwXIABXSG76bnOj-30" style="edgeStyle=orthogonalEdgeStyle;rounded=0;orthogonalLoop=1;jettySize=auto;html=1;exitX=0.5;exitY=1;exitDx=0;exitDy=0;entryX=1;entryY=0.5;entryDx=0;entryDy=0;" parent="1" source="K3_foTwXIABXSG76bnOj-1" target="K3_foTwXIABXSG76bnOj-13" edge="1">
          <mxGeometry relative="1" as="geometry" />
        </mxCell>
        <mxCell id="K3_foTwXIABXSG76bnOj-31" style="edgeStyle=orthogonalEdgeStyle;rounded=0;orthogonalLoop=1;jettySize=auto;html=1;exitX=0.5;exitY=1;exitDx=0;exitDy=0;entryX=1;entryY=0.5;entryDx=0;entryDy=0;" parent="1" source="K3_foTwXIABXSG76bnOj-1" target="K3_foTwXIABXSG76bnOj-14" edge="1">
          <mxGeometry relative="1" as="geometry" />
        </mxCell>
        <mxCell id="K3_foTwXIABXSG76bnOj-32" style="edgeStyle=orthogonalEdgeStyle;rounded=0;orthogonalLoop=1;jettySize=auto;html=1;exitX=0.5;exitY=1;exitDx=0;exitDy=0;entryX=1;entryY=0.5;entryDx=0;entryDy=0;" parent="1" source="K3_foTwXIABXSG76bnOj-1" target="K3_foTwXIABXSG76bnOj-15" edge="1">
          <mxGeometry relative="1" as="geometry" />
        </mxCell>
        <mxCell id="K3_foTwXIABXSG76bnOj-33" style="edgeStyle=orthogonalEdgeStyle;rounded=0;orthogonalLoop=1;jettySize=auto;html=1;exitX=0.5;exitY=1;exitDx=0;exitDy=0;entryX=1;entryY=0.5;entryDx=0;entryDy=0;" parent="1" source="K3_foTwXIABXSG76bnOj-1" target="K3_foTwXIABXSG76bnOj-16" edge="1">
          <mxGeometry relative="1" as="geometry" />
        </mxCell>
        <mxCell id="K3_foTwXIABXSG76bnOj-34" style="edgeStyle=orthogonalEdgeStyle;rounded=0;orthogonalLoop=1;jettySize=auto;html=1;exitX=0.5;exitY=1;exitDx=0;exitDy=0;entryX=1;entryY=0.5;entryDx=0;entryDy=0;" parent="1" source="K3_foTwXIABXSG76bnOj-1" target="K3_foTwXIABXSG76bnOj-17" edge="1">
          <mxGeometry relative="1" as="geometry" />
        </mxCell>
        <mxCell id="K3_foTwXIABXSG76bnOj-35" style="edgeStyle=orthogonalEdgeStyle;rounded=0;orthogonalLoop=1;jettySize=auto;html=1;exitX=0.5;exitY=1;exitDx=0;exitDy=0;entryX=1;entryY=0.5;entryDx=0;entryDy=0;" parent="1" source="K3_foTwXIABXSG76bnOj-1" target="K3_foTwXIABXSG76bnOj-18" edge="1">
          <mxGeometry relative="1" as="geometry" />
        </mxCell>
        <mxCell id="K3_foTwXIABXSG76bnOj-1" value="User" style="rounded=0;whiteSpace=wrap;html=1;" parent="1" vertex="1">
          <mxGeometry x="160" y="80" width="120" height="40" as="geometry" />
        </mxCell>
        <mxCell id="K3_foTwXIABXSG76bnOj-2" value="Email" style="rounded=0;whiteSpace=wrap;html=1;" parent="1" vertex="1">
          <mxGeometry x="80" y="240" width="120" height="40" as="geometry" />
        </mxCell>
        <mxCell id="K3_foTwXIABXSG76bnOj-3" value="First Name" style="rounded=0;whiteSpace=wrap;html=1;" parent="1" vertex="1">
          <mxGeometry x="80" y="320" width="120" height="40" as="geometry" />
        </mxCell>
        <mxCell id="K3_foTwXIABXSG76bnOj-4" value="Last Name" style="rounded=0;whiteSpace=wrap;html=1;" parent="1" vertex="1">
          <mxGeometry x="80" y="400" width="120" height="40" as="geometry" />
        </mxCell>
        <mxCell id="K3_foTwXIABXSG76bnOj-5" value="Full Name" style="rounded=0;whiteSpace=wrap;html=1;" parent="1" vertex="1">
          <mxGeometry x="80" y="480" width="120" height="40" as="geometry" />
        </mxCell>
        <mxCell id="K3_foTwXIABXSG76bnOj-6" value="Password" style="rounded=0;whiteSpace=wrap;html=1;" parent="1" vertex="1">
          <mxGeometry x="80" y="560" width="120" height="40" as="geometry" />
        </mxCell>
        <mxCell id="K3_foTwXIABXSG76bnOj-7" value="Role" style="rounded=0;whiteSpace=wrap;html=1;" parent="1" vertex="1">
          <mxGeometry x="80" y="640" width="120" height="40" as="geometry" />
        </mxCell>
        <mxCell id="K3_foTwXIABXSG76bnOj-8" value="Id" style="rounded=0;whiteSpace=wrap;html=1;" parent="1" vertex="1">
          <mxGeometry x="80" y="160" width="120" height="40" as="geometry" />
        </mxCell>
        <mxCell id="K3_foTwXIABXSG76bnOj-9" value="Created At" style="rounded=0;whiteSpace=wrap;html=1;" parent="1" vertex="1">
          <mxGeometry x="80" y="720" width="120" height="40" as="geometry" />
        </mxCell>
        <mxCell id="K3_foTwXIABXSG76bnOj-10" value="UpdatedAt" style="rounded=0;whiteSpace=wrap;html=1;" parent="1" vertex="1">
          <mxGeometry x="80" y="800" width="120" height="40" as="geometry" />
        </mxCell>
        <mxCell id="K3_foTwXIABXSG76bnOj-12" value="Country" style="rounded=0;whiteSpace=wrap;html=1;" parent="1" vertex="1">
          <mxGeometry x="80" y="880" width="120" height="40" as="geometry" />
        </mxCell>
        <mxCell id="K3_foTwXIABXSG76bnOj-13" value="City" style="rounded=0;whiteSpace=wrap;html=1;" parent="1" vertex="1">
          <mxGeometry x="80" y="960" width="120" height="40" as="geometry" />
        </mxCell>
        <mxCell id="K3_foTwXIABXSG76bnOj-14" value="Subject" style="rounded=0;whiteSpace=wrap;html=1;" parent="1" vertex="1">
          <mxGeometry x="80" y="1040" width="120" height="40" as="geometry" />
        </mxCell>
        <mxCell id="K3_foTwXIABXSG76bnOj-15" value="Description" style="rounded=0;whiteSpace=wrap;html=1;" parent="1" vertex="1">
          <mxGeometry x="80" y="1120" width="120" height="40" as="geometry" />
        </mxCell>
        <mxCell id="K3_foTwXIABXSG76bnOj-40" style="edgeStyle=orthogonalEdgeStyle;rounded=0;orthogonalLoop=1;jettySize=auto;html=1;exitX=0;exitY=0.5;exitDx=0;exitDy=0;entryX=1;entryY=0.5;entryDx=0;entryDy=0;" parent="1" source="K3_foTwXIABXSG76bnOj-16" target="K3_foTwXIABXSG76bnOj-37" edge="1">
          <mxGeometry relative="1" as="geometry" />
        </mxCell>
        <mxCell id="K3_foTwXIABXSG76bnOj-41" style="edgeStyle=orthogonalEdgeStyle;rounded=0;orthogonalLoop=1;jettySize=auto;html=1;exitX=0;exitY=0.5;exitDx=0;exitDy=0;entryX=1;entryY=0.5;entryDx=0;entryDy=0;" parent="1" source="K3_foTwXIABXSG76bnOj-16" target="K3_foTwXIABXSG76bnOj-38" edge="1">
          <mxGeometry relative="1" as="geometry" />
        </mxCell>
        <mxCell id="K3_foTwXIABXSG76bnOj-42" style="edgeStyle=orthogonalEdgeStyle;rounded=0;orthogonalLoop=1;jettySize=auto;html=1;exitX=0;exitY=0.5;exitDx=0;exitDy=0;entryX=1;entryY=0.5;entryDx=0;entryDy=0;" parent="1" source="K3_foTwXIABXSG76bnOj-16" target="K3_foTwXIABXSG76bnOj-39" edge="1">
          <mxGeometry relative="1" as="geometry" />
        </mxCell>
        <mxCell id="K3_foTwXIABXSG76bnOj-16" value="Socials" style="rounded=0;whiteSpace=wrap;html=1;" parent="1" vertex="1">
          <mxGeometry x="80" y="1200" width="120" height="40" as="geometry" />
        </mxCell>
        <mxCell id="K3_foTwXIABXSG76bnOj-17" value="Interests" style="rounded=0;whiteSpace=wrap;html=1;" parent="1" vertex="1">
          <mxGeometry x="80" y="1280" width="120" height="40" as="geometry" />
        </mxCell>
        <mxCell id="K3_foTwXIABXSG76bnOj-18" value="Website" style="rounded=0;whiteSpace=wrap;html=1;" parent="1" vertex="1">
          <mxGeometry x="80" y="1360" width="120" height="40" as="geometry" />
        </mxCell>
        <mxCell id="K3_foTwXIABXSG76bnOj-37" value="Type" style="rounded=0;whiteSpace=wrap;html=1;" parent="1" vertex="1">
          <mxGeometry x="-120" y="1120" width="120" height="40" as="geometry" />
        </mxCell>
        <mxCell id="K3_foTwXIABXSG76bnOj-38" value="Name" style="rounded=0;whiteSpace=wrap;html=1;" parent="1" vertex="1">
          <mxGeometry x="-120" y="1200" width="120" height="40" as="geometry" />
        </mxCell>
        <mxCell id="K3_foTwXIABXSG76bnOj-39" value="Link" style="rounded=0;whiteSpace=wrap;html=1;" parent="1" vertex="1">
          <mxGeometry x="-120" y="1280" width="120" height="40" as="geometry" />
        </mxCell>
        <mxCell id="K3_foTwXIABXSG76bnOj-55" style="edgeStyle=orthogonalEdgeStyle;rounded=0;orthogonalLoop=1;jettySize=auto;html=1;exitX=0.5;exitY=1;exitDx=0;exitDy=0;entryX=1;entryY=0.5;entryDx=0;entryDy=0;" parent="1" source="K3_foTwXIABXSG76bnOj-43" target="K3_foTwXIABXSG76bnOj-44" edge="1">
          <mxGeometry relative="1" as="geometry" />
        </mxCell>
        <mxCell id="K3_foTwXIABXSG76bnOj-56" style="edgeStyle=orthogonalEdgeStyle;rounded=0;orthogonalLoop=1;jettySize=auto;html=1;exitX=0.5;exitY=1;exitDx=0;exitDy=0;entryX=1;entryY=0.5;entryDx=0;entryDy=0;" parent="1" source="K3_foTwXIABXSG76bnOj-43" target="K3_foTwXIABXSG76bnOj-45" edge="1">
          <mxGeometry relative="1" as="geometry" />
        </mxCell>
        <mxCell id="K3_foTwXIABXSG76bnOj-57" style="edgeStyle=orthogonalEdgeStyle;rounded=0;orthogonalLoop=1;jettySize=auto;html=1;exitX=0.5;exitY=1;exitDx=0;exitDy=0;entryX=1;entryY=0.5;entryDx=0;entryDy=0;" parent="1" source="K3_foTwXIABXSG76bnOj-43" target="K3_foTwXIABXSG76bnOj-46" edge="1">
          <mxGeometry relative="1" as="geometry" />
        </mxCell>
        <mxCell id="K3_foTwXIABXSG76bnOj-58" style="edgeStyle=orthogonalEdgeStyle;rounded=0;orthogonalLoop=1;jettySize=auto;html=1;exitX=0.5;exitY=1;exitDx=0;exitDy=0;entryX=1;entryY=0.5;entryDx=0;entryDy=0;" parent="1" source="K3_foTwXIABXSG76bnOj-43" target="K3_foTwXIABXSG76bnOj-47" edge="1">
          <mxGeometry relative="1" as="geometry" />
        </mxCell>
        <mxCell id="K3_foTwXIABXSG76bnOj-59" style="edgeStyle=orthogonalEdgeStyle;rounded=0;orthogonalLoop=1;jettySize=auto;html=1;exitX=0.5;exitY=1;exitDx=0;exitDy=0;entryX=1;entryY=0.5;entryDx=0;entryDy=0;" parent="1" source="K3_foTwXIABXSG76bnOj-43" target="K3_foTwXIABXSG76bnOj-48" edge="1">
          <mxGeometry relative="1" as="geometry" />
        </mxCell>
        <mxCell id="K3_foTwXIABXSG76bnOj-60" style="edgeStyle=orthogonalEdgeStyle;rounded=0;orthogonalLoop=1;jettySize=auto;html=1;exitX=0.5;exitY=1;exitDx=0;exitDy=0;entryX=1;entryY=0.5;entryDx=0;entryDy=0;" parent="1" source="K3_foTwXIABXSG76bnOj-43" target="K3_foTwXIABXSG76bnOj-49" edge="1">
          <mxGeometry relative="1" as="geometry" />
        </mxCell>
        <mxCell id="K3_foTwXIABXSG76bnOj-61" style="edgeStyle=orthogonalEdgeStyle;rounded=0;orthogonalLoop=1;jettySize=auto;html=1;exitX=0.5;exitY=1;exitDx=0;exitDy=0;entryX=1;entryY=0.5;entryDx=0;entryDy=0;" parent="1" source="K3_foTwXIABXSG76bnOj-43" target="K3_foTwXIABXSG76bnOj-52" edge="1">
          <mxGeometry relative="1" as="geometry" />
        </mxCell>
        <mxCell id="K3_foTwXIABXSG76bnOj-62" style="edgeStyle=orthogonalEdgeStyle;rounded=0;orthogonalLoop=1;jettySize=auto;html=1;exitX=0.5;exitY=1;exitDx=0;exitDy=0;entryX=1;entryY=0.5;entryDx=0;entryDy=0;" parent="1" source="K3_foTwXIABXSG76bnOj-43" target="K3_foTwXIABXSG76bnOj-53" edge="1">
          <mxGeometry relative="1" as="geometry" />
        </mxCell>
        <mxCell id="K3_foTwXIABXSG76bnOj-63" style="edgeStyle=orthogonalEdgeStyle;rounded=0;orthogonalLoop=1;jettySize=auto;html=1;exitX=0.5;exitY=1;exitDx=0;exitDy=0;entryX=1;entryY=0.5;entryDx=0;entryDy=0;" parent="1" source="K3_foTwXIABXSG76bnOj-43" target="K3_foTwXIABXSG76bnOj-54" edge="1">
          <mxGeometry relative="1" as="geometry" />
        </mxCell>
        <mxCell id="K3_foTwXIABXSG76bnOj-43" value="Post" style="rounded=0;whiteSpace=wrap;html=1;" parent="1" vertex="1">
          <mxGeometry x="440" y="80" width="120" height="40" as="geometry" />
        </mxCell>
        <mxCell id="K3_foTwXIABXSG76bnOj-44" value="Id" style="rounded=0;whiteSpace=wrap;html=1;" parent="1" vertex="1">
          <mxGeometry x="360" y="160" width="120" height="40" as="geometry" />
        </mxCell>
        <mxCell id="K3_foTwXIABXSG76bnOj-45" value="User Id" style="rounded=0;whiteSpace=wrap;html=1;" parent="1" vertex="1">
          <mxGeometry x="360" y="240" width="120" height="40" as="geometry" />
        </mxCell>
        <mxCell id="K3_foTwXIABXSG76bnOj-46" value="Markdown" style="rounded=0;whiteSpace=wrap;html=1;" parent="1" vertex="1">
          <mxGeometry x="360" y="320" width="120" height="40" as="geometry" />
        </mxCell>
        <mxCell id="K3_foTwXIABXSG76bnOj-47" value="Created At" style="rounded=0;whiteSpace=wrap;html=1;" parent="1" vertex="1">
          <mxGeometry x="360" y="400" width="120" height="40" as="geometry" />
        </mxCell>
        <mxCell id="K3_foTwXIABXSG76bnOj-48" value="Updated At" style="rounded=0;whiteSpace=wrap;html=1;" parent="1" vertex="1">
          <mxGeometry x="360" y="480" width="120" height="40" as="geometry" />
        </mxCell>
        <mxCell id="K3_foTwXIABXSG76bnOj-49" value="Title" style="rounded=0;whiteSpace=wrap;html=1;" parent="1" vertex="1">
          <mxGeometry x="360" y="560" width="120" height="40" as="geometry" />
        </mxCell>
        <mxCell id="K3_foTwXIABXSG76bnOj-52" value="Updated At" style="rounded=0;whiteSpace=wrap;html=1;" parent="1" vertex="1">
          <mxGeometry x="360" y="640" width="120" height="40" as="geometry" />
        </mxCell>
        <mxCell id="K3_foTwXIABXSG76bnOj-53" value="Tags" style="rounded=0;whiteSpace=wrap;html=1;" parent="1" vertex="1">
          <mxGeometry x="360" y="720" width="120" height="40" as="geometry" />
        </mxCell>
        <mxCell id="K3_foTwXIABXSG76bnOj-54" value="Poster" style="rounded=0;whiteSpace=wrap;html=1;" parent="1" vertex="1">
          <mxGeometry x="360" y="800" width="120" height="40" as="geometry" />
        </mxCell>
        <mxCell id="K3_foTwXIABXSG76bnOj-69" style="edgeStyle=orthogonalEdgeStyle;rounded=0;orthogonalLoop=1;jettySize=auto;html=1;exitX=0.5;exitY=1;exitDx=0;exitDy=0;entryX=1;entryY=0.5;entryDx=0;entryDy=0;" parent="1" source="K3_foTwXIABXSG76bnOj-64" target="K3_foTwXIABXSG76bnOj-65" edge="1">
          <mxGeometry relative="1" as="geometry" />
        </mxCell>
        <mxCell id="K3_foTwXIABXSG76bnOj-70" style="edgeStyle=orthogonalEdgeStyle;rounded=0;orthogonalLoop=1;jettySize=auto;html=1;exitX=0.5;exitY=1;exitDx=0;exitDy=0;entryX=1;entryY=0.5;entryDx=0;entryDy=0;" parent="1" source="K3_foTwXIABXSG76bnOj-64" target="K3_foTwXIABXSG76bnOj-66" edge="1">
          <mxGeometry relative="1" as="geometry" />
        </mxCell>
        <mxCell id="K3_foTwXIABXSG76bnOj-71" style="edgeStyle=orthogonalEdgeStyle;rounded=0;orthogonalLoop=1;jettySize=auto;html=1;exitX=0.5;exitY=1;exitDx=0;exitDy=0;entryX=1;entryY=0.5;entryDx=0;entryDy=0;" parent="1" source="K3_foTwXIABXSG76bnOj-64" target="K3_foTwXIABXSG76bnOj-67" edge="1">
          <mxGeometry relative="1" as="geometry" />
        </mxCell>
        <mxCell id="K3_foTwXIABXSG76bnOj-72" style="edgeStyle=orthogonalEdgeStyle;rounded=0;orthogonalLoop=1;jettySize=auto;html=1;exitX=0.5;exitY=1;exitDx=0;exitDy=0;entryX=1;entryY=0.5;entryDx=0;entryDy=0;" parent="1" source="K3_foTwXIABXSG76bnOj-64" target="K3_foTwXIABXSG76bnOj-68" edge="1">
          <mxGeometry relative="1" as="geometry" />
        </mxCell>
        <mxCell id="K3_foTwXIABXSG76bnOj-119" style="edgeStyle=orthogonalEdgeStyle;rounded=0;orthogonalLoop=1;jettySize=auto;html=1;exitX=0.5;exitY=1;exitDx=0;exitDy=0;entryX=1;entryY=0.5;entryDx=0;entryDy=0;" parent="1" source="K3_foTwXIABXSG76bnOj-64" target="K3_foTwXIABXSG76bnOj-118" edge="1">
          <mxGeometry relative="1" as="geometry" />
        </mxCell>
        <mxCell id="K3_foTwXIABXSG76bnOj-64" value="Like" style="rounded=0;whiteSpace=wrap;html=1;" parent="1" vertex="1">
          <mxGeometry x="720" y="80" width="120" height="40" as="geometry" />
        </mxCell>
        <mxCell id="K3_foTwXIABXSG76bnOj-65" value="User Id" style="rounded=0;whiteSpace=wrap;html=1;" parent="1" vertex="1">
          <mxGeometry x="640" y="240" width="120" height="40" as="geometry" />
        </mxCell>
        <mxCell id="K3_foTwXIABXSG76bnOj-66" value="Post Id" style="rounded=0;whiteSpace=wrap;html=1;" parent="1" vertex="1">
          <mxGeometry x="640" y="320" width="120" height="40" as="geometry" />
        </mxCell>
        <mxCell id="K3_foTwXIABXSG76bnOj-67" value="Created At" style="rounded=0;whiteSpace=wrap;html=1;" parent="1" vertex="1">
          <mxGeometry x="640" y="400" width="120" height="40" as="geometry" />
        </mxCell>
        <mxCell id="K3_foTwXIABXSG76bnOj-68" value="Updated At" style="rounded=0;whiteSpace=wrap;html=1;" parent="1" vertex="1">
          <mxGeometry x="640" y="480" width="120" height="40" as="geometry" />
        </mxCell>
        <mxCell id="K3_foTwXIABXSG76bnOj-78" style="edgeStyle=orthogonalEdgeStyle;rounded=0;orthogonalLoop=1;jettySize=auto;html=1;exitX=0.5;exitY=1;exitDx=0;exitDy=0;entryX=1;entryY=0.5;entryDx=0;entryDy=0;" parent="1" source="K3_foTwXIABXSG76bnOj-73" target="K3_foTwXIABXSG76bnOj-74" edge="1">
          <mxGeometry relative="1" as="geometry" />
        </mxCell>
        <mxCell id="K3_foTwXIABXSG76bnOj-79" style="edgeStyle=orthogonalEdgeStyle;rounded=0;orthogonalLoop=1;jettySize=auto;html=1;exitX=0.5;exitY=1;exitDx=0;exitDy=0;entryX=1;entryY=0.5;entryDx=0;entryDy=0;" parent="1" source="K3_foTwXIABXSG76bnOj-73" target="K3_foTwXIABXSG76bnOj-75" edge="1">
          <mxGeometry relative="1" as="geometry" />
        </mxCell>
        <mxCell id="K3_foTwXIABXSG76bnOj-80" style="edgeStyle=orthogonalEdgeStyle;rounded=0;orthogonalLoop=1;jettySize=auto;html=1;exitX=0.5;exitY=1;exitDx=0;exitDy=0;entryX=1;entryY=0.5;entryDx=0;entryDy=0;" parent="1" source="K3_foTwXIABXSG76bnOj-73" target="K3_foTwXIABXSG76bnOj-76" edge="1">
          <mxGeometry relative="1" as="geometry" />
        </mxCell>
        <mxCell id="K3_foTwXIABXSG76bnOj-81" style="edgeStyle=orthogonalEdgeStyle;rounded=0;orthogonalLoop=1;jettySize=auto;html=1;exitX=0.5;exitY=1;exitDx=0;exitDy=0;entryX=1;entryY=0.5;entryDx=0;entryDy=0;" parent="1" source="K3_foTwXIABXSG76bnOj-73" target="K3_foTwXIABXSG76bnOj-77" edge="1">
          <mxGeometry relative="1" as="geometry" />
        </mxCell>
        <mxCell id="K3_foTwXIABXSG76bnOj-120" style="edgeStyle=orthogonalEdgeStyle;rounded=0;orthogonalLoop=1;jettySize=auto;html=1;exitX=0.5;exitY=1;exitDx=0;exitDy=0;entryX=1;entryY=0.5;entryDx=0;entryDy=0;" parent="1" source="K3_foTwXIABXSG76bnOj-73" target="K3_foTwXIABXSG76bnOj-117" edge="1">
          <mxGeometry relative="1" as="geometry" />
        </mxCell>
        <mxCell id="K3_foTwXIABXSG76bnOj-73" value="Save" style="rounded=0;whiteSpace=wrap;html=1;" parent="1" vertex="1">
          <mxGeometry x="1000" y="80" width="120" height="40" as="geometry" />
        </mxCell>
        <mxCell id="K3_foTwXIABXSG76bnOj-74" value="User Id" style="rounded=0;whiteSpace=wrap;html=1;" parent="1" vertex="1">
          <mxGeometry x="920" y="240" width="120" height="40" as="geometry" />
        </mxCell>
        <mxCell id="K3_foTwXIABXSG76bnOj-75" value="Post Id" style="rounded=0;whiteSpace=wrap;html=1;" parent="1" vertex="1">
          <mxGeometry x="920" y="320" width="120" height="40" as="geometry" />
        </mxCell>
        <mxCell id="K3_foTwXIABXSG76bnOj-76" value="Created At" style="rounded=0;whiteSpace=wrap;html=1;" parent="1" vertex="1">
          <mxGeometry x="920" y="400" width="120" height="40" as="geometry" />
        </mxCell>
        <mxCell id="K3_foTwXIABXSG76bnOj-77" value="Updated At" style="rounded=0;whiteSpace=wrap;html=1;" parent="1" vertex="1">
          <mxGeometry x="920" y="480" width="120" height="40" as="geometry" />
        </mxCell>
        <mxCell id="K3_foTwXIABXSG76bnOj-89" style="edgeStyle=orthogonalEdgeStyle;rounded=0;orthogonalLoop=1;jettySize=auto;html=1;exitX=0.5;exitY=1;exitDx=0;exitDy=0;entryX=1;entryY=0.5;entryDx=0;entryDy=0;" parent="1" source="K3_foTwXIABXSG76bnOj-82" target="K3_foTwXIABXSG76bnOj-83" edge="1">
          <mxGeometry relative="1" as="geometry" />
        </mxCell>
        <mxCell id="K3_foTwXIABXSG76bnOj-90" style="edgeStyle=orthogonalEdgeStyle;rounded=0;orthogonalLoop=1;jettySize=auto;html=1;exitX=0.5;exitY=1;exitDx=0;exitDy=0;entryX=1;entryY=0.5;entryDx=0;entryDy=0;" parent="1" source="K3_foTwXIABXSG76bnOj-82" target="K3_foTwXIABXSG76bnOj-84" edge="1">
          <mxGeometry relative="1" as="geometry" />
        </mxCell>
        <mxCell id="K3_foTwXIABXSG76bnOj-91" style="edgeStyle=orthogonalEdgeStyle;rounded=0;orthogonalLoop=1;jettySize=auto;html=1;exitX=0.5;exitY=1;exitDx=0;exitDy=0;entryX=1;entryY=0.5;entryDx=0;entryDy=0;" parent="1" source="K3_foTwXIABXSG76bnOj-82" target="K3_foTwXIABXSG76bnOj-85" edge="1">
          <mxGeometry relative="1" as="geometry" />
        </mxCell>
        <mxCell id="K3_foTwXIABXSG76bnOj-92" style="edgeStyle=orthogonalEdgeStyle;rounded=0;orthogonalLoop=1;jettySize=auto;html=1;exitX=0.5;exitY=1;exitDx=0;exitDy=0;entryX=1;entryY=0.5;entryDx=0;entryDy=0;" parent="1" source="K3_foTwXIABXSG76bnOj-82" target="K3_foTwXIABXSG76bnOj-86" edge="1">
          <mxGeometry relative="1" as="geometry" />
        </mxCell>
        <mxCell id="K3_foTwXIABXSG76bnOj-116" style="edgeStyle=orthogonalEdgeStyle;rounded=0;orthogonalLoop=1;jettySize=auto;html=1;exitX=0.5;exitY=1;exitDx=0;exitDy=0;entryX=1;entryY=0.5;entryDx=0;entryDy=0;" parent="1" source="K3_foTwXIABXSG76bnOj-82" target="K3_foTwXIABXSG76bnOj-115" edge="1">
          <mxGeometry relative="1" as="geometry" />
        </mxCell>
        <mxCell id="K3_foTwXIABXSG76bnOj-82" value="Following" style="rounded=0;whiteSpace=wrap;html=1;" parent="1" vertex="1">
          <mxGeometry x="1320" y="80" width="120" height="40" as="geometry" />
        </mxCell>
        <mxCell id="K3_foTwXIABXSG76bnOj-83" value="User Id" style="rounded=0;whiteSpace=wrap;html=1;" parent="1" vertex="1">
          <mxGeometry x="1241" y="240" width="120" height="40" as="geometry" />
        </mxCell>
        <mxCell id="K3_foTwXIABXSG76bnOj-84" value="Following Id" style="rounded=0;whiteSpace=wrap;html=1;" parent="1" vertex="1">
          <mxGeometry x="1241" y="320" width="120" height="40" as="geometry" />
        </mxCell>
        <mxCell id="K3_foTwXIABXSG76bnOj-85" value="Created At" style="rounded=0;whiteSpace=wrap;html=1;" parent="1" vertex="1">
          <mxGeometry x="1241" y="400" width="120" height="40" as="geometry" />
        </mxCell>
        <mxCell id="K3_foTwXIABXSG76bnOj-86" value="Updated At" style="rounded=0;whiteSpace=wrap;html=1;" parent="1" vertex="1">
          <mxGeometry x="1241" y="480" width="120" height="40" as="geometry" />
        </mxCell>
        <mxCell id="K3_foTwXIABXSG76bnOj-108" style="edgeStyle=orthogonalEdgeStyle;rounded=0;orthogonalLoop=1;jettySize=auto;html=1;exitX=0.5;exitY=1;exitDx=0;exitDy=0;entryX=1;entryY=0.5;entryDx=0;entryDy=0;" parent="1" source="K3_foTwXIABXSG76bnOj-102" target="K3_foTwXIABXSG76bnOj-103" edge="1">
          <mxGeometry relative="1" as="geometry" />
        </mxCell>
        <mxCell id="K3_foTwXIABXSG76bnOj-109" style="edgeStyle=orthogonalEdgeStyle;rounded=0;orthogonalLoop=1;jettySize=auto;html=1;exitX=0.5;exitY=1;exitDx=0;exitDy=0;entryX=1;entryY=0.5;entryDx=0;entryDy=0;" parent="1" source="K3_foTwXIABXSG76bnOj-102" target="K3_foTwXIABXSG76bnOj-104" edge="1">
          <mxGeometry relative="1" as="geometry" />
        </mxCell>
        <mxCell id="K3_foTwXIABXSG76bnOj-110" style="edgeStyle=orthogonalEdgeStyle;rounded=0;orthogonalLoop=1;jettySize=auto;html=1;exitX=0.5;exitY=1;exitDx=0;exitDy=0;entryX=1;entryY=0.5;entryDx=0;entryDy=0;" parent="1" source="K3_foTwXIABXSG76bnOj-102" target="K3_foTwXIABXSG76bnOj-105" edge="1">
          <mxGeometry relative="1" as="geometry" />
        </mxCell>
        <mxCell id="K3_foTwXIABXSG76bnOj-111" style="edgeStyle=orthogonalEdgeStyle;rounded=0;orthogonalLoop=1;jettySize=auto;html=1;exitX=0.5;exitY=1;exitDx=0;exitDy=0;entryX=1;entryY=0.5;entryDx=0;entryDy=0;" parent="1" source="K3_foTwXIABXSG76bnOj-102" target="K3_foTwXIABXSG76bnOj-106" edge="1">
          <mxGeometry relative="1" as="geometry" />
        </mxCell>
        <mxCell id="K3_foTwXIABXSG76bnOj-112" style="edgeStyle=orthogonalEdgeStyle;rounded=0;orthogonalLoop=1;jettySize=auto;html=1;exitX=0.5;exitY=1;exitDx=0;exitDy=0;entryX=1;entryY=0.5;entryDx=0;entryDy=0;" parent="1" source="K3_foTwXIABXSG76bnOj-102" target="K3_foTwXIABXSG76bnOj-107" edge="1">
          <mxGeometry relative="1" as="geometry" />
        </mxCell>
        <mxCell id="K3_foTwXIABXSG76bnOj-114" style="edgeStyle=orthogonalEdgeStyle;rounded=0;orthogonalLoop=1;jettySize=auto;html=1;exitX=0.5;exitY=1;exitDx=0;exitDy=0;entryX=1;entryY=0.5;entryDx=0;entryDy=0;" parent="1" source="K3_foTwXIABXSG76bnOj-102" target="K3_foTwXIABXSG76bnOj-113" edge="1">
          <mxGeometry relative="1" as="geometry" />
        </mxCell>
        <mxCell id="K3_foTwXIABXSG76bnOj-102" value="Comments" style="rounded=0;whiteSpace=wrap;html=1;" parent="1" vertex="1">
          <mxGeometry x="1600" y="80" width="120" height="40" as="geometry" />
        </mxCell>
        <mxCell id="K3_foTwXIABXSG76bnOj-103" value="User Id" style="rounded=0;whiteSpace=wrap;html=1;" parent="1" vertex="1">
          <mxGeometry x="1520" y="240" width="120" height="40" as="geometry" />
        </mxCell>
        <mxCell id="K3_foTwXIABXSG76bnOj-104" value="Post Id" style="rounded=0;whiteSpace=wrap;html=1;" parent="1" vertex="1">
          <mxGeometry x="1520" y="320" width="120" height="40" as="geometry" />
        </mxCell>
        <mxCell id="K3_foTwXIABXSG76bnOj-105" value="Text" style="rounded=0;whiteSpace=wrap;html=1;" parent="1" vertex="1">
          <mxGeometry x="1520" y="400" width="120" height="40" as="geometry" />
        </mxCell>
        <mxCell id="K3_foTwXIABXSG76bnOj-106" value="Created At" style="rounded=0;whiteSpace=wrap;html=1;" parent="1" vertex="1">
          <mxGeometry x="1520" y="480" width="120" height="40" as="geometry" />
        </mxCell>
        <mxCell id="K3_foTwXIABXSG76bnOj-107" value="Updated At" style="rounded=0;whiteSpace=wrap;html=1;" parent="1" vertex="1">
          <mxGeometry x="1520" y="560" width="120" height="40" as="geometry" />
        </mxCell>
        <mxCell id="K3_foTwXIABXSG76bnOj-113" value="Id" style="rounded=0;whiteSpace=wrap;html=1;" parent="1" vertex="1">
          <mxGeometry x="1520" y="160" width="120" height="40" as="geometry" />
        </mxCell>
        <mxCell id="K3_foTwXIABXSG76bnOj-115" value="Id" style="rounded=0;whiteSpace=wrap;html=1;" parent="1" vertex="1">
          <mxGeometry x="1241" y="160" width="120" height="40" as="geometry" />
        </mxCell>
        <mxCell id="K3_foTwXIABXSG76bnOj-117" value="Id" style="rounded=0;whiteSpace=wrap;html=1;" parent="1" vertex="1">
          <mxGeometry x="920" y="160" width="120" height="40" as="geometry" />
        </mxCell>
        <mxCell id="K3_foTwXIABXSG76bnOj-118" value="Id" style="rounded=0;whiteSpace=wrap;html=1;" parent="1" vertex="1">
          <mxGeometry x="640" y="160" width="120" height="40" as="geometry" />
        </mxCell>
        <mxCell id="K3_foTwXIABXSG76bnOj-139" style="edgeStyle=orthogonalEdgeStyle;rounded=0;orthogonalLoop=1;jettySize=auto;html=1;exitX=0.5;exitY=1;exitDx=0;exitDy=0;entryX=1;entryY=0.5;entryDx=0;entryDy=0;" parent="1" source="K3_foTwXIABXSG76bnOj-121" target="K3_foTwXIABXSG76bnOj-131" edge="1">
          <mxGeometry relative="1" as="geometry" />
        </mxCell>
        <mxCell id="K3_foTwXIABXSG76bnOj-140" style="edgeStyle=orthogonalEdgeStyle;rounded=0;orthogonalLoop=1;jettySize=auto;html=1;exitX=0.5;exitY=1;exitDx=0;exitDy=0;entryX=1;entryY=0.5;entryDx=0;entryDy=0;" parent="1" source="K3_foTwXIABXSG76bnOj-121" target="K3_foTwXIABXSG76bnOj-126" edge="1">
          <mxGeometry relative="1" as="geometry" />
        </mxCell>
        <mxCell id="K3_foTwXIABXSG76bnOj-141" style="edgeStyle=orthogonalEdgeStyle;rounded=0;orthogonalLoop=1;jettySize=auto;html=1;exitX=0.5;exitY=1;exitDx=0;exitDy=0;entryX=1;entryY=0.5;entryDx=0;entryDy=0;" parent="1" source="K3_foTwXIABXSG76bnOj-121" target="K3_foTwXIABXSG76bnOj-127" edge="1">
          <mxGeometry relative="1" as="geometry" />
        </mxCell>
        <mxCell id="K3_foTwXIABXSG76bnOj-142" style="edgeStyle=orthogonalEdgeStyle;rounded=0;orthogonalLoop=1;jettySize=auto;html=1;exitX=0.5;exitY=1;exitDx=0;exitDy=0;entryX=1;entryY=0.5;entryDx=0;entryDy=0;" parent="1" source="K3_foTwXIABXSG76bnOj-121" target="K3_foTwXIABXSG76bnOj-128" edge="1">
          <mxGeometry relative="1" as="geometry" />
        </mxCell>
        <mxCell id="K3_foTwXIABXSG76bnOj-143" style="edgeStyle=orthogonalEdgeStyle;rounded=0;orthogonalLoop=1;jettySize=auto;html=1;exitX=0.5;exitY=1;exitDx=0;exitDy=0;entryX=1;entryY=0.5;entryDx=0;entryDy=0;" parent="1" source="K3_foTwXIABXSG76bnOj-121" target="K3_foTwXIABXSG76bnOj-129" edge="1">
          <mxGeometry relative="1" as="geometry" />
        </mxCell>
        <mxCell id="K3_foTwXIABXSG76bnOj-144" style="edgeStyle=orthogonalEdgeStyle;rounded=0;orthogonalLoop=1;jettySize=auto;html=1;exitX=0.5;exitY=1;exitDx=0;exitDy=0;entryX=1;entryY=0.5;entryDx=0;entryDy=0;" parent="1" source="K3_foTwXIABXSG76bnOj-121" target="K3_foTwXIABXSG76bnOj-130" edge="1">
          <mxGeometry relative="1" as="geometry" />
        </mxCell>
        <mxCell id="K3_foTwXIABXSG76bnOj-145" style="edgeStyle=orthogonalEdgeStyle;rounded=0;orthogonalLoop=1;jettySize=auto;html=1;exitX=0.5;exitY=1;exitDx=0;exitDy=0;entryX=1;entryY=0.5;entryDx=0;entryDy=0;" parent="1" source="K3_foTwXIABXSG76bnOj-121" target="K3_foTwXIABXSG76bnOj-138" edge="1">
          <mxGeometry relative="1" as="geometry" />
        </mxCell>
        <mxCell id="K3_foTwXIABXSG76bnOj-121" value="Replies" style="rounded=0;whiteSpace=wrap;html=1;" parent="1" vertex="1">
          <mxGeometry x="1880" y="80" width="120" height="40" as="geometry" />
        </mxCell>
        <mxCell id="K3_foTwXIABXSG76bnOj-126" value="User Id" style="rounded=0;whiteSpace=wrap;html=1;" parent="1" vertex="1">
          <mxGeometry x="1800" y="240" width="120" height="40" as="geometry" />
        </mxCell>
        <mxCell id="K3_foTwXIABXSG76bnOj-127" value="Post Id" style="rounded=0;whiteSpace=wrap;html=1;" parent="1" vertex="1">
          <mxGeometry x="1800" y="320" width="120" height="40" as="geometry" />
        </mxCell>
        <mxCell id="K3_foTwXIABXSG76bnOj-128" value="Text" style="rounded=0;whiteSpace=wrap;html=1;" parent="1" vertex="1">
          <mxGeometry x="1800" y="400" width="120" height="40" as="geometry" />
        </mxCell>
        <mxCell id="K3_foTwXIABXSG76bnOj-129" value="Created At" style="rounded=0;whiteSpace=wrap;html=1;" parent="1" vertex="1">
          <mxGeometry x="1800" y="480" width="120" height="40" as="geometry" />
        </mxCell>
        <mxCell id="K3_foTwXIABXSG76bnOj-130" value="Updated At" style="rounded=0;whiteSpace=wrap;html=1;" parent="1" vertex="1">
          <mxGeometry x="1800" y="560" width="120" height="40" as="geometry" />
        </mxCell>
        <mxCell id="K3_foTwXIABXSG76bnOj-131" value="Id" style="rounded=0;whiteSpace=wrap;html=1;" parent="1" vertex="1">
          <mxGeometry x="1800" y="160" width="120" height="40" as="geometry" />
        </mxCell>
        <mxCell id="K3_foTwXIABXSG76bnOj-138" value="Comment Id" style="rounded=0;whiteSpace=wrap;html=1;" parent="1" vertex="1">
          <mxGeometry x="1800" y="640" width="120" height="40" as="geometry" />
        </mxCell>
        <mxCell id="UPRrMj6-qopBgMtVMY6R-16" style="edgeStyle=orthogonalEdgeStyle;rounded=0;orthogonalLoop=1;jettySize=auto;html=1;exitX=0.5;exitY=1;exitDx=0;exitDy=0;entryX=1;entryY=0.5;entryDx=0;entryDy=0;" edge="1" parent="1" source="UPRrMj6-qopBgMtVMY6R-1" target="UPRrMj6-qopBgMtVMY6R-2">
          <mxGeometry relative="1" as="geometry" />
        </mxCell>
        <mxCell id="UPRrMj6-qopBgMtVMY6R-17" style="edgeStyle=orthogonalEdgeStyle;rounded=0;orthogonalLoop=1;jettySize=auto;html=1;exitX=0.5;exitY=1;exitDx=0;exitDy=0;entryX=1;entryY=0.5;entryDx=0;entryDy=0;" edge="1" parent="1" source="UPRrMj6-qopBgMtVMY6R-1" target="UPRrMj6-qopBgMtVMY6R-3">
          <mxGeometry relative="1" as="geometry" />
        </mxCell>
        <mxCell id="UPRrMj6-qopBgMtVMY6R-18" style="edgeStyle=orthogonalEdgeStyle;rounded=0;orthogonalLoop=1;jettySize=auto;html=1;exitX=0.5;exitY=1;exitDx=0;exitDy=0;entryX=1;entryY=0.5;entryDx=0;entryDy=0;" edge="1" parent="1" source="UPRrMj6-qopBgMtVMY6R-1" target="UPRrMj6-qopBgMtVMY6R-4">
          <mxGeometry relative="1" as="geometry" />
        </mxCell>
        <mxCell id="UPRrMj6-qopBgMtVMY6R-19" style="edgeStyle=orthogonalEdgeStyle;rounded=0;orthogonalLoop=1;jettySize=auto;html=1;exitX=0.5;exitY=1;exitDx=0;exitDy=0;entryX=1;entryY=0.5;entryDx=0;entryDy=0;" edge="1" parent="1" source="UPRrMj6-qopBgMtVMY6R-1" target="UPRrMj6-qopBgMtVMY6R-5">
          <mxGeometry relative="1" as="geometry" />
        </mxCell>
        <mxCell id="UPRrMj6-qopBgMtVMY6R-20" style="edgeStyle=orthogonalEdgeStyle;rounded=0;orthogonalLoop=1;jettySize=auto;html=1;exitX=0.5;exitY=1;exitDx=0;exitDy=0;entryX=1;entryY=0.5;entryDx=0;entryDy=0;" edge="1" parent="1" source="UPRrMj6-qopBgMtVMY6R-1" target="UPRrMj6-qopBgMtVMY6R-15">
          <mxGeometry relative="1" as="geometry" />
        </mxCell>
        <mxCell id="UPRrMj6-qopBgMtVMY6R-21" style="edgeStyle=orthogonalEdgeStyle;rounded=0;orthogonalLoop=1;jettySize=auto;html=1;exitX=0.5;exitY=1;exitDx=0;exitDy=0;entryX=1;entryY=0.5;entryDx=0;entryDy=0;" edge="1" parent="1" source="UPRrMj6-qopBgMtVMY6R-1" target="UPRrMj6-qopBgMtVMY6R-7">
          <mxGeometry relative="1" as="geometry" />
        </mxCell>
        <mxCell id="UPRrMj6-qopBgMtVMY6R-22" style="edgeStyle=orthogonalEdgeStyle;rounded=0;orthogonalLoop=1;jettySize=auto;html=1;exitX=0.5;exitY=1;exitDx=0;exitDy=0;entryX=1;entryY=0.5;entryDx=0;entryDy=0;" edge="1" parent="1" source="UPRrMj6-qopBgMtVMY6R-1" target="UPRrMj6-qopBgMtVMY6R-8">
          <mxGeometry relative="1" as="geometry" />
        </mxCell>
        <mxCell id="UPRrMj6-qopBgMtVMY6R-1" value="Notifications" style="rounded=0;whiteSpace=wrap;html=1;" vertex="1" parent="1">
          <mxGeometry x="2160" y="80" width="120" height="40" as="geometry" />
        </mxCell>
        <mxCell id="UPRrMj6-qopBgMtVMY6R-2" value="Id" style="rounded=0;whiteSpace=wrap;html=1;" vertex="1" parent="1">
          <mxGeometry x="2080" y="160" width="120" height="40" as="geometry" />
        </mxCell>
        <mxCell id="UPRrMj6-qopBgMtVMY6R-3" value="User Id" style="rounded=0;whiteSpace=wrap;html=1;" vertex="1" parent="1">
          <mxGeometry x="2080" y="240" width="120" height="40" as="geometry" />
        </mxCell>
        <mxCell id="UPRrMj6-qopBgMtVMY6R-4" value="Title" style="rounded=0;whiteSpace=wrap;html=1;" vertex="1" parent="1">
          <mxGeometry x="2080" y="320" width="120" height="40" as="geometry" />
        </mxCell>
        <mxCell id="UPRrMj6-qopBgMtVMY6R-5" value="Text" style="rounded=0;whiteSpace=wrap;html=1;" vertex="1" parent="1">
          <mxGeometry x="2080" y="400" width="120" height="40" as="geometry" />
        </mxCell>
        <mxCell id="UPRrMj6-qopBgMtVMY6R-7" value="Created At" style="rounded=0;whiteSpace=wrap;html=1;" vertex="1" parent="1">
          <mxGeometry x="2080" y="560" width="120" height="40" as="geometry" />
        </mxCell>
        <mxCell id="UPRrMj6-qopBgMtVMY6R-8" value="Updated At" style="rounded=0;whiteSpace=wrap;html=1;" vertex="1" parent="1">
          <mxGeometry x="2080" y="640" width="120" height="40" as="geometry" />
        </mxCell>
        <mxCell id="UPRrMj6-qopBgMtVMY6R-15" value="Link" style="rounded=0;whiteSpace=wrap;html=1;" vertex="1" parent="1">
          <mxGeometry x="2080" y="480" width="120" height="40" as="geometry" />
        </mxCell>
      </root>
    </mxGraphModel>
  </diagram>
</mxfile>
